# xmcd
#
# Track frame offsets:
#	150
#	22050
#	42057
#	63582
#	83165
#	111440
#	135097
#	152947
#	174432
#	197682
#	222407
#	241467
#	263915
#	286122
#	309700
#	330020
#
# Disc length: 4679 seconds
#
# Revision: 1
# Processed by: cddbd v1.5.1PL0 Copyright (c) Steve Scherf et al.
# Submitted via: CDex 1.50Beta5
#
DISCID=dd124510
DTITLE=桂銀淑 - 全曲集〜あなたのそばに〜
DYEAR=2001
DGENRE=Pop
TTITLE0=あなたのそばに
TTITLE1=素顔のままのあなたで
TTITLE2=プリーズ…
TTITLE3=for you…
TTITLE4=愛ひとつ 夢ひとつ
TTITLE5=葉桜
TTITLE6=休止符
TTITLE7=人魚伝説
TTITLE8=想い出めぐり
TTITLE9=愛するマリア
TTITLE10=ラ・ヒターナ〜La Gitana〜
TTITLE11=「Yes」と答えて
TTITLE12=モナリザ<ニューバージョン>
TTITLE13=冬凪の海岸ホテル
TTITLE14=悲しみはロシアから
TTITLE15=昭和最後の秋のこと
EXTD=
EXTT0=
EXTT1=
EXTT2=
EXTT3=
EXTT4=
EXTT5=
EXTT6=
EXTT7=
EXTT8=
EXTT9=
EXTT10=
EXTT11=
EXTT12=
EXTT13=
EXTT14=
EXTT15=
PLAYORDER=
